<?xml version="1.0" encoding="UTF-8" standalone="no"?>
<svg
   xmlns:dc="http://purl.org/dc/elements/1.1/"
   xmlns:cc="http://creativecommons.org/ns#"
   xmlns:rdf="http://www.w3.org/1999/02/22-rdf-syntax-ns#"
   xmlns:svg="http://www.w3.org/2000/svg"
   xmlns="http://www.w3.org/2000/svg"
   xmlns:sodipodi="http://sodipodi.sourceforge.net/DTD/sodipodi-0.dtd"
   xmlns:inkscape="http://www.inkscape.org/namespaces/inkscape"
   version="1.1"
   width="100"
   height="100"
   viewBox="0 0 100 100"
   id="svg17"
   sodipodi:docname="pyladiestw-text-2line.svg"
   inkscape:version="0.92.2 5c3e80d, 2017-08-06">
  <metadata
     id="metadata23">
    <rdf:RDF>
      <cc:Work
         rdf:about="">
        <dc:format>image/svg+xml</dc:format>
        <dc:type
           rdf:resource="http://purl.org/dc/dcmitype/StillImage" />
        <dc:title />
      </cc:Work>
    </rdf:RDF>
  </metadata>
  <defs
     id="defs21" />
  <sodipodi:namedview
     pagecolor="#ffffff"
     bordercolor="#666666"
     borderopacity="1"
     objecttolerance="10"
     gridtolerance="10"
     guidetolerance="10"
     inkscape:pageopacity="0"
     inkscape:pageshadow="2"
     inkscape:window-width="1280"
     inkscape:window-height="688"
     id="namedview19"
     showgrid="false"
     inkscape:zoom="2.16"
     inkscape:cx="161.28232"
     inkscape:cy="23.125409"
     inkscape:window-x="0"
     inkscape:window-y="0"
     inkscape:window-maximized="1"
     inkscape:current-layer="svg17" />
  <g
     id="svgGroup"
     font-size="9pt"
     transform="matrix(0.27824866,0,0,0.29109304,2.5723819,19.406095)"
     style="font-size:12px;fill:#f95f62;fill-rule:evenodd;stroke:#000000;stroke-width:0mm;stroke-linecap:round">
    <path
       d="m 45.215,25.879 q 0,5.274 -2.295,10.352 -2.295,5.078 -6.104,9.131 -3.808,4.052 -8.691,6.64 a 24.714,24.714 0 0 1 -7.808,2.643 23.147,23.147 0 0 1 -2.251,0.238 q -0.092,1.67 -0.141,4.178 a 213.937,213.937 0 0 0 -0.005,0.265 66.794,66.794 0 0 1 -0.211,4.166 76.641,76.641 0 0 1 -0.131,1.45 72.469,72.469 0 0 1 -0.83,5.859 26.427,26.427 0 0 1 -0.759,3.11 21.027,21.027 0 0 1 -0.803,2.163 12.574,12.574 0 0 1 -1.172,2.124 9.812,9.812 0 0 1 -1.465,1.685 5.589,5.589 0 0 1 -3.594,1.456 7.236,7.236 0 0 1 -0.361,0.009 q -2.735,0 -4.346,-1.807 Q 2.637,77.735 1.807,75.196 0.977,72.656 0.684,69.873 A 122.398,122.398 0 0 1 0.491,67.903 Q 0.354,66.358 0.293,65.137 A 109.27,109.27 0 0 1 0.049,59.571 311.834,311.834 0 0 1 0,54.004 V 49.268 A 588.525,588.525 0 0 1 0.009,46.047 Q 0.018,44.405 0.036,42.588 A 989.27,989.27 0 0 1 0.049,41.358 977.325,977.325 0 0 1 0.15,34.473 1107.864,1107.864 0 0 1 0.195,32.08 376.625,376.625 0 0 1 0.317,27.417 300.109,300.109 0 0 1 0.488,23.096 q 0.135,-2.853 0.292,-5.13 a 138.834,138.834 0 0 1 0.148,-1.95 q 0.244,-2.93 0.635,-3.418 0.091,-0.092 0.524,-0.397 A 27.425,27.425 0 0 1 2.148,12.158 14.365,14.365 0 0 1 2.797,11.731 17.428,17.428 0 0 1 3.223,11.475 Q 3.809,11.133 4.297,10.84 a 30.617,30.617 0 0 1 0.219,-0.13 q 0.27,-0.159 0.417,-0.237 a 2.814,2.814 0 0 1 0.047,-0.024 57.32,57.32 0 0 1 7.233,-3.424 66.523,66.523 0 0 1 2.631,-0.97 33.274,33.274 0 0 1 8.25,-1.76 30.248,30.248 0 0 1 2.394,-0.096 19.302,19.302 0 0 1 5.229,0.689 16.906,16.906 0 0 1 2.926,1.118 19.761,19.761 0 0 1 6.25,4.785 q 2.587,2.979 3.955,6.934 a 24.786,24.786 0 0 1 1.367,8.154 z M 28.32,28.125 a 6.943,6.943 0 0 0 -0.243,-1.871 5.769,5.769 0 0 0 -0.684,-1.547 q -0.928,-1.465 -3.077,-1.465 a 9.909,9.909 0 0 0 -3.305,0.581 11.432,11.432 0 0 0 -0.406,0.152 46.073,46.073 0 0 0 -2.204,0.934 37.727,37.727 0 0 0 -1.213,0.579 677.729,677.729 0 0 1 0.506,6.238 618.801,618.801 0 0 1 0.031,0.403 48.189,48.189 0 0 1 0.135,3.641 52.576,52.576 0 0 1 -0.087,3 81.583,81.583 0 0 0 1.636,-0.843 109.009,109.009 0 0 0 1.782,-0.964 q 1.856,-1.025 3.418,-2.295 a 12.977,12.977 0 0 0 2.637,-2.881 6.425,6.425 0 0 0 1.073,-3.534 7.752,7.752 0 0 0 0.001,-0.128 z"
       id="0"
       inkscape:connector-curvature="0"
       style="vector-effect:non-scaling-stroke" />
    <path
       d="m 66.578,106.501 a 17.939,17.939 0 0 0 2.172,0.14 20.681,20.681 0 0 0 3.343,-0.261 15.534,15.534 0 0 0 6.032,-2.278 q 3.906,-2.539 6.592,-6.739 a 35.534,35.534 0 0 0 1.87,-3.307 41.911,41.911 0 0 0 2.476,-6.214 q 1.66,-5.322 2.49,-10.84 a 126.143,126.143 0 0 0 0.199,-1.375 114.432,114.432 0 0 0 0.924,-9.367 233.342,233.342 0 0 0 0.037,-0.689 q 0.256,-4.808 0.256,-8.637 0,-1.319 -0.083,-3.379 a 192.079,192.079 0 0 0 -0.064,-1.455 101.208,101.208 0 0 0 -0.207,-3.223 132.316,132.316 0 0 0 -0.33,-3.515 84.175,84.175 0 0 0 -1.123,-7.374 43.965,43.965 0 0 0 -0.618,-2.693 35.91,35.91 0 0 0 -1.335,-4.094 22.932,22.932 0 0 0 -0.155,-0.38 q -0.549,-1.315 -1.201,-2.405 a 13.252,13.252 0 0 0 -1.623,-2.195 7.299,7.299 0 0 0 -0.169,-0.178 5.476,5.476 0 0 0 -4.03,-1.726 5.998,5.998 0 0 0 -1.162,0.107 4.218,4.218 0 0 0 -2.012,0.967 q -1.22,1.074 -1.953,2.783 a 14.48,14.48 0 0 0 -0.53,1.453 17.706,17.706 0 0 0 -0.544,2.356 q -0.342,2.099 -0.391,4.248 a 194.17,194.17 0 0 0 -0.036,2.099 168.253,168.253 0 0 0 -0.012,2.002 v 3.321 a 41.892,41.892 0 0 1 -0.028,1.499 50.316,50.316 0 0 1 -0.168,2.651 Q 75,50 74.268,51.904 a 7.651,7.651 0 0 1 -2.247,3.174 4.803,4.803 0 0 1 -0.511,0.375 q -0.808,0.513 -1.853,0.732 a 8.233,8.233 0 0 1 -1.688,0.163 q -1.369,0 -2.357,-0.29 a 4.291,4.291 0 0 1 -1.11,-0.491 4.718,4.718 0 0 1 -1.807,-2.1 7.6,7.6 0 0 1 -0.425,-1.242 9.409,9.409 0 0 1 -0.258,-1.737 q -0.098,-1.66 -0.098,-3.32 0,-0.879 0.028,-2.334 a 309.539,309.539 0 0 1 0.021,-1.035 62.207,62.207 0 0 0 0.002,-0.092 q 0.026,-1.241 0.005,-2.621 A 96.117,96.117 0 0 0 61.914,38.965 59.618,59.618 0 0 0 61.475,33.643 30.55,30.55 0 0 0 61.163,31.69 24.85,24.85 0 0 0 60.4,28.711 14.686,14.686 0 0 0 59.617,26.766 10.646,10.646 0 0 0 58.496,24.951 Q 57.324,23.438 55.469,23.34 a 6.36,6.36 0 0 0 -0.438,-0.015 q -1.503,0 -2.685,0.745 a 5.664,5.664 0 0 0 -1.467,1.37 14.941,14.941 0 0 0 -1.573,2.573 19.682,19.682 0 0 0 -1.161,3.042 q -0.977,3.32 -1.416,6.787 a 139.435,139.435 0 0 0 -0.02,0.153 q -0.422,3.361 -0.518,5.462 -0.122,1.77 -0.091,3.75 a 57.769,57.769 0 0 0 0.091,2.451 53.205,53.205 0 0 0 0.027,0.422 57.763,57.763 0 0 0 0.803,6.463 36.777,36.777 0 0 0 1.905,6.787 26.236,26.236 0 0 0 0.588,1.396 22.563,22.563 0 0 0 2.634,4.415 15.475,15.475 0 0 0 4.737,4.101 11.759,11.759 0 0 0 3.117,1.196 14.913,14.913 0 0 0 3.377,0.367 15.841,15.841 0 0 0 1.67,-0.086 12.09,12.09 0 0 0 6.582,-2.697 23.899,23.899 0 0 0 1.582,-1.436 q 1.32,-1.307 2.648,-2.978 a 49.931,49.931 0 0 0 2.557,-3.545 q -0.073,1.318 -0.201,3.241 a 591.889,591.889 0 0 1 -0.092,1.349 82.681,82.681 0 0 1 -0.256,2.929 101.393,101.393 0 0 1 -0.379,3.125 q -0.439,3.223 -1.22,6.494 a 34.663,34.663 0 0 1 -0.566,2.084 28.657,28.657 0 0 1 -1.485,3.873 16.448,16.448 0 0 1 -1.214,2.154 12.219,12.219 0 0 1 -1.862,2.192 6.074,6.074 0 0 1 -4.248,1.66 9.452,9.452 0 0 1 -0.213,-0.002 8.371,8.371 0 0 1 -2.375,-0.388 42.272,42.272 0 0 1 -0.153,-0.05 46.234,46.234 0 0 1 -2.338,-0.829 27.071,27.071 0 0 0 -0.437,-0.178 24.05,24.05 0 0 0 -1.858,-0.652 7.839,7.839 0 0 0 -2.294,-0.342 4.942,4.942 0 0 0 -2.051,0.439 q -0.977,0.44 -1.807,1.172 -0.83,0.733 -1.318,1.709 a 5.104,5.104 0 0 0 -0.202,0.458 4.157,4.157 0 0 0 -0.286,1.495 q 0,2.539 1.806,4.492 a 14.58,14.58 0 0 0 1.472,1.383 17.101,17.101 0 0 0 2.972,1.938 25.246,25.246 0 0 0 5.615,2.099 31.831,31.831 0 0 0 0.825,0.192 q 1.219,0.265 2.325,0.401 z"
       id="1"
       inkscape:connector-curvature="0"
       style="vector-effect:non-scaling-stroke" />
    <path
       d="m 117.09,58.594 v 3.809 a 127.472,127.472 0 0 1 4.59,-1.331 158.313,158.313 0 0 1 4.98,-1.257 46.222,46.222 0 0 1 6.26,-1.048 38.312,38.312 0 0 1 3.603,-0.173 29.657,29.657 0 0 1 3.37,0.195 10.589,10.589 0 0 1 1.699,0.33 8.288,8.288 0 0 1 1.328,0.5 5.379,5.379 0 0 1 2.148,1.856 4.411,4.411 0 0 1 0.595,1.323 q 0.162,0.588 0.212,1.287 a 9.158,9.158 0 0 1 0.023,0.661 6.059,6.059 0 0 1 -0.946,3.219 8.703,8.703 0 0 1 -1.056,1.371 17.851,17.851 0 0 1 -2.447,2.165 24.64,24.64 0 0 1 -2.728,1.741 40.175,40.175 0 0 1 -4.481,2.118 48.776,48.776 0 0 1 -2.599,0.959 q -3.907,1.318 -7.715,2.246 a 83.919,83.919 0 0 1 -4.479,0.967 67.863,67.863 0 0 1 -2.699,0.449 70.001,70.001 0 0 1 -1.596,0.213 q -1.731,0.211 -2.996,0.26 a 18.803,18.803 0 0 1 -0.73,0.015 22.844,22.844 0 0 1 -2.415,-0.134 28.075,28.075 0 0 1 -1.54,-0.208 8.107,8.107 0 0 1 -1.753,-0.48 6.191,6.191 0 0 1 -1.714,-1.034 2.112,2.112 0 0 1 -0.441,-0.469 q -0.369,-0.517 -0.687,-1.414 a 12.698,12.698 0 0 1 -0.239,-0.753 41.992,41.992 0 0 1 -0.433,-1.648 q -0.355,-1.465 -0.69,-3.235 a 83.747,83.747 0 0 1 -0.614,-3.712 102.231,102.231 0 0 1 -0.314,-2.392 157.33,157.33 0 0 1 -0.635,-6.396 293.448,293.448 0 0 1 -0.22,-3.003 227.005,227.005 0 0 1 -0.17,-2.759 144.385,144.385 0 0 1 -0.065,-1.245 q -0.063,-1.346 -0.077,-2.305 a 35.889,35.889 0 0 1 -0.005,-0.551 q 0,-2.442 0.147,-5.909 A 212.658,212.658 0 0 1 99.744,39.234 259.81,259.81 0 0 1 100,35.401 q 0.293,-3.955 0.781,-8.057 a 155.422,155.422 0 0 1 0.741,-5.432 132.534,132.534 0 0 1 0.382,-2.332 q 0.635,-3.662 1.563,-6.592 0.928,-2.929 2.002,-4.589 1.855,-2.637 4.687,-2.637 a 4.607,4.607 0 0 1 3.321,1.318 8.613,8.613 0 0 1 1.466,1.897 11.356,11.356 0 0 1 0.731,1.521 q 0.83,2.1 1.269,4.688 0.44,2.588 0.635,5.127 a 69.709,69.709 0 0 1 0.147,2.441 54.027,54.027 0 0 1 0.048,2.246 v 3.418 a 330.099,330.099 0 0 1 -0.341,15.088 330.099,330.099 0 0 0 -0.342,15.088 z"
       id="2"
       inkscape:connector-curvature="0"
       style="vector-effect:non-scaling-stroke" />
    <path
       d="m 189.835,65.399 a 52.555,52.555 0 0 0 0.009,-0.946 q 0,-4.004 -0.196,-8.252 -0.195,-4.248 -0.781,-8.496 a 69.351,69.351 0 0 0 -1.66,-8.301 42.178,42.178 0 0 0 -2.832,-7.666 15.275,15.275 0 0 0 -3.076,-4.443 19.501,19.501 0 0 0 -4.248,-3.223 q -2.344,-1.318 -4.981,-1.953 -2.636,-0.634 -5.273,-0.634 -1.505,0 -3.161,0.289 a 25.596,25.596 0 0 0 -3.04,0.736 25.893,25.893 0 0 0 -6.25,2.832 q -2.881,1.807 -4.785,4.443 a 9.776,9.776 0 0 0 -1.905,5.86 5.898,5.898 0 0 0 0.006,0.265 4.478,4.478 0 0 0 1.508,3.25 q 1.514,1.368 3.662,1.368 a 8.708,8.708 0 0 0 0.719,-0.03 7.152,7.152 0 0 0 2.797,-0.801 36.103,36.103 0 0 0 0.048,-0.026 39.388,39.388 0 0 0 3.077,-1.829 27.248,27.248 0 0 1 3.32,-1.855 7.332,7.332 0 0 1 0.19,-0.087 q 0.927,-0.406 2.037,-0.59 a 12.041,12.041 0 0 1 1.972,-0.154 8.141,8.141 0 0 1 1.687,0.166 5.41,5.41 0 0 1 3.001,1.69 6.297,6.297 0 0 1 1.426,2.777 8.992,8.992 0 0 1 0.234,2.106 q 0,0.244 -0.012,0.464 a 6.064,6.064 0 0 1 -0.037,0.415 5.555,5.555 0 0 0 -0.001,0.006 q -0.024,0.195 -0.036,0.416 a 8.398,8.398 0 0 0 -0.012,0.457 35.832,35.832 0 0 0 -1.079,0.159 q -1.65,0.268 -3.487,0.715 a 65.902,65.902 0 0 0 -3.881,1.079 41.479,41.479 0 0 0 -8.936,3.955 30.057,30.057 0 0 0 -0.902,0.557 26.218,26.218 0 0 0 -6.178,5.449 q -2.881,3.515 -2.881,8.203 a 12.151,12.151 0 0 0 0.179,2.067 14.136,14.136 0 0 0 0.993,3.255 q 1.172,2.686 3.125,4.834 a 16.786,16.786 0 0 0 4.493,3.516 11.167,11.167 0 0 0 5.371,1.367 q 4.101,0 8.056,-1.563 3.955,-1.562 7.08,-4.297 a 11.962,11.962 0 0 0 -0.004,0.333 q 0,0.695 0.082,1.342 a 7.964,7.964 0 0 0 1.778,4.185 6.234,6.234 0 0 0 3.278,2.067 8.923,8.923 0 0 0 2.288,0.277 6.559,6.559 0 0 0 0.651,-0.032 4.712,4.712 0 0 0 3.451,-1.922 11.734,11.734 0 0 0 1.132,-1.849 14.176,14.176 0 0 0 1.016,-2.789 28.221,28.221 0 0 0 0.83,-5.518 q 0.11,-2.124 0.138,-3.644 z m -15.616,-4.071 -0.293,-6.64 a 1.605,1.605 0 0 1 -0.391,-0.049 1.605,1.605 0 0 0 -0.39,-0.049 6.561,6.561 0 0 0 -0.948,0.075 q -0.977,0.143 -2.226,0.56 a 16.445,16.445 0 0 0 -3.662,1.758 15.422,15.422 0 0 0 -1.898,1.419 12.719,12.719 0 0 0 -1.081,1.071 q -1.221,1.367 -1.221,2.832 a 2.949,2.949 0 0 0 0.075,0.691 1.67,1.67 0 0 0 0.902,1.164 4.582,4.582 0 0 0 1.408,0.431 5.894,5.894 0 0 0 0.838,0.058 9.425,9.425 0 0 0 2.365,-0.317 q 1.013,-0.263 2.082,-0.742 a 15.894,15.894 0 0 0 0.143,-0.064 62.109,62.109 0 0 0 2.16,-1.043 q 1.151,-0.584 2.137,-1.155 z"
       id="3"
       inkscape:connector-curvature="0"
       style="vector-effect:non-scaling-stroke" />
    <path
       d="m 222.07,29.981 0.879,-15.528 q 0.067,-1.275 0.181,-2.851 a 231.195,231.195 0 0 1 0.112,-1.494 24.737,24.737 0 0 1 0.66,-4.1 22.51,22.51 0 0 1 0.17,-0.637 10.546,10.546 0 0 1 0.946,-2.31 8.865,8.865 0 0 1 1.056,-1.498 q 1.329,-1.519 3.857,-1.562 A 8.721,8.721 0 0 1 230.078,0 9.44,9.44 0 0 1 231.8,0.147 q 0.964,0.179 1.725,0.576 a 4.795,4.795 0 0 1 0.948,0.644 7.935,7.935 0 0 1 2.175,3.144 9.443,9.443 0 0 1 0.12,0.323 16.179,16.179 0 0 1 0.769,3.342 18.882,18.882 0 0 1 0.109,1.199 q 0.147,2.442 0.147,4.59 0,7.129 -0.537,14.16 -0.537,7.031 -0.537,14.16 0,5.762 0.342,11.426 0.341,5.664 0.341,11.426 a 62.253,62.253 0 0 1 -0.013,1.261 q -0.023,1.125 -0.084,2.499 -0.098,2.197 -0.635,4.248 a 9.6,9.6 0 0 1 -0.879,2.228 8.24,8.24 0 0 1 -0.879,1.287 q -1.221,1.465 -3.467,1.465 a 6.36,6.36 0 0 1 -2.748,-0.584 6.328,6.328 0 0 1 -2.086,-1.613 q -1.904,-2.197 -2.392,-4.932 a 16.49,16.49 0 0 1 -4.674,5.45 19.515,19.515 0 0 1 -0.697,0.507 q -3.516,2.442 -7.618,2.442 -4.394,0 -7.568,-3.028 a 24.832,24.832 0 0 1 -4.52,-5.884 29.012,29.012 0 0 1 -0.753,-1.44 39.728,39.728 0 0 1 -3.125,-8.984 q -1.026,-4.688 -1.026,-8.106 a 48.644,48.644 0 0 1 0.056,-2.267 q 0.054,-1.156 0.161,-2.434 a 82.41,82.41 0 0 1 0.076,-0.865 q 0.293,-3.125 1.026,-6.348 a 46.816,46.816 0 0 1 1.904,-6.299 23.611,23.611 0 0 1 2.166,-4.338 21.143,21.143 0 0 1 0.812,-1.179 q 1.807,-2.442 4.297,-3.906 a 10.629,10.629 0 0 1 4.338,-1.395 13.207,13.207 0 0 1 1.375,-0.07 q 3.516,0 6.739,2.051 a 15.033,15.033 0 0 1 3.203,2.697 12.998,12.998 0 0 1 1.679,2.381 z m -0.195,28.125 v -0.782 a 96.8,96.8 0 0 0 -0.098,-4.394 47.85,47.85 0 0 1 -0.048,-2.173 51.146,51.146 0 0 1 0.048,-2.222 61.046,61.046 0 0 0 -0.634,-1.33 82.043,82.043 0 0 0 -0.733,-1.453 14.881,14.881 0 0 0 -1.904,-2.832 11.422,11.422 0 0 0 -2.142,-1.963 10.579,10.579 0 0 0 -0.348,-0.234 q -1.368,-0.879 -2.93,-0.879 -1.758,0 -2.832,1.074 -1.074,1.074 -1.563,2.588 a 13.978,13.978 0 0 0 -0.532,2.355 16.44,16.44 0 0 0 -0.102,0.917 q -0.147,1.757 -0.147,3.027 a 19.701,19.701 0 0 0 0.012,0.656 q 0.026,0.749 0.103,1.797 a 89.228,89.228 0 0 0 0.08,1.014 33.452,33.452 0 0 0 0.733,4.638 q 0.537,2.344 1.514,4.102 a 4.326,4.326 0 0 0 0.63,0.879 2.663,2.663 0 0 0 2.006,0.879 6.336,6.336 0 0 0 2.143,-0.383 7.423,7.423 0 0 0 0.396,-0.154 11.65,11.65 0 0 0 2.393,-1.368 q 1.123,-0.83 2.148,-1.855 a 52.594,52.594 0 0 0 0.965,-0.989 38.428,38.428 0 0 0 0.842,-0.915 z"
       id="4"
       inkscape:connector-curvature="0"
       style="vector-effect:non-scaling-stroke" />
    <path
       d="m 261.133,43.262 v 2.881 q 0,1.513 -0.098,2.881 -0.075,1.271 -0.092,3.2 a 137.106,137.106 0 0 0 -0.005,1.243 89.102,89.102 0 0 1 -0.049,2.893 111.309,111.309 0 0 1 -0.147,3.113 q -0.195,3.223 -0.635,6.543 a 32.434,32.434 0 0 1 -0.664,3.55 26.171,26.171 0 0 1 -0.752,2.505 15.155,15.155 0 0 1 -0.976,2.196 q -0.705,1.286 -1.611,2.247 a 5.662,5.662 0 0 1 -4.034,1.806 7.19,7.19 0 0 1 -0.019,0.001 4.114,4.114 0 0 1 -0.216,0.005 q -1.514,0 -2.622,-1.146 a 5.016,5.016 0 0 1 -0.287,-0.324 q -1.133,-1.394 -1.916,-3.526 a 18.535,18.535 0 0 1 -0.184,-0.527 26.248,26.248 0 0 1 -0.795,-2.987 33.752,33.752 0 0 1 -0.426,-2.579 104.981,104.981 0 0 1 -0.476,-4.505 94.305,94.305 0 0 1 -0.109,-1.453 89.585,89.585 0 0 1 -0.147,-2.771 69.663,69.663 0 0 1 -0.049,-2.551 v -3.613 -4.443 a 95.095,95.095 0 0 1 0.049,-2.991 117.956,117.956 0 0 1 0.147,-3.211 69.802,69.802 0 0 1 0.732,-6.738 36.738,36.738 0 0 1 0.81,-3.852 29.841,29.841 0 0 1 0.752,-2.398 15.916,15.916 0 0 1 1.019,-2.272 q 0.687,-1.246 1.551,-2.193 a 9.825,9.825 0 0 1 0.116,-0.125 5.495,5.495 0 0 1 4.002,-1.755 7.19,7.19 0 0 1 0.197,-0.003 4.074,4.074 0 0 1 3.307,1.562 6.197,6.197 0 0 1 0.697,1.075 20.109,20.109 0 0 1 1.314,3.22 26.754,26.754 0 0 1 0.737,2.933 q 0.684,3.515 0.781,6.982 0.096,3.404 0.098,5.066 a 58.295,58.295 0 0 1 0,0.061 z m -1.136,-31.444 a 4.34,4.34 0 0 0 0.355,-1.759 4.885,4.885 0 0 0 -0.077,-0.887 2.937,2.937 0 0 0 -1.486,-2.141 6.853,6.853 0 0 0 -3.418,-0.878 8.643,8.643 0 0 0 -0.925,0.05 10.205,10.205 0 0 0 -1.712,0.34 9.526,9.526 0 0 0 -0.512,0.162 8.167,8.167 0 0 0 -1.929,0.961 6.546,6.546 0 0 0 -1.807,1.856 4.38,4.38 0 0 0 -0.5,1.048 4.971,4.971 0 0 0 -0.232,1.54 4.95,4.95 0 0 0 0.056,0.76 3.184,3.184 0 0 0 1.409,2.267 5.626,5.626 0 0 0 1.507,0.709 6.597,6.597 0 0 0 1.911,0.267 q 1.172,0 2.539,-0.439 a 9.281,9.281 0 0 0 2.539,-1.27 8.67,8.67 0 0 0 0.496,-0.378 7.303,7.303 0 0 0 1.408,-1.526 4.193,4.193 0 0 0 0.378,-0.682 z"
       id="5"
       inkscape:connector-curvature="0"
       style="vector-effect:non-scaling-stroke" />
    <path
       d="m 307.852,65.638 a 10.983,10.983 0 0 0 1.132,-4.798 5.101,5.101 0 0 0 -0.015,-0.393 4.033,4.033 0 0 0 -1.547,-2.927 q -1.563,-1.27 -3.516,-1.27 a 6.392,6.392 0 0 0 -1.637,0.215 7.59,7.59 0 0 0 -1.83,0.762 42.58,42.58 0 0 0 -0.857,0.503 48.272,48.272 0 0 0 -2.609,1.694 q -1.758,1.221 -3.614,2.197 a 9.436,9.436 0 0 1 -0.348,0.175 7.987,7.987 0 0 1 -3.46,0.802 9.801,9.801 0 0 1 -1.425,-0.101 7.504,7.504 0 0 1 -3.116,-1.169 4.773,4.773 0 0 1 -0.438,-0.329 q -0.949,-0.804 -1.438,-2.082 a 7.648,7.648 0 0 1 -0.419,-1.69 q 4.394,-0.196 8.594,-2.002 a 26.51,26.51 0 0 0 7.421,-4.737 22.757,22.757 0 0 0 5.176,-6.933 q 1.953,-4.004 1.953,-8.594 a 16.865,16.865 0 0 0 -0.085,-1.715 13.793,13.793 0 0 0 -1.282,-4.633 15.897,15.897 0 0 0 -3.613,-4.882 15.236,15.236 0 0 0 -0.647,-0.559 16.146,16.146 0 0 0 -4.627,-2.615 18.103,18.103 0 0 0 -6.347,-1.123 20.526,20.526 0 0 0 -1.969,0.092 16.057,16.057 0 0 0 -8.139,3.033 26.148,26.148 0 0 0 -7.031,7.812 q -2.783,4.688 -4.15,10.254 a 50.835,50.835 0 0 0 -0.885,4.41 39.823,39.823 0 0 0 -0.482,6.039 30.574,30.574 0 0 0 0.124,2.747 34.877,34.877 0 0 0 1.292,6.677 q 1.416,4.834 4.15,8.838 a 23.381,23.381 0 0 0 6.787,6.592 16.083,16.083 0 0 0 3.338,1.627 17.659,17.659 0 0 0 5.891,0.961 12.594,12.594 0 0 0 0.796,-0.026 q 2.7,-0.171 5.844,-1.488 a 29.301,29.301 0 0 0 6.787,-4.004 q 3.174,-2.49 5.274,-5.664 a 14.262,14.262 0 0 0 0.967,-1.696 z M 293.164,36.914 q 0,-1.269 -0.684,-2.636 a 2.766,2.766 0 0 0 -0.532,-0.75 q -0.578,-0.565 -1.449,-0.613 a 3,3 0 0 0 -0.167,-0.005 6.804,6.804 0 0 0 -1.735,0.211 5.245,5.245 0 0 0 -1.878,0.912 9.312,9.312 0 0 0 -2.31,2.608 10.7,10.7 0 0 0 -0.132,0.224 15.783,15.783 0 0 0 -1.513,3.663 20.442,20.442 0 0 0 -0.428,1.879 15.185,15.185 0 0 0 -0.207,1.734 q 0.94,-0.202 2.134,-0.495 A 120.533,120.533 0 0 0 285.4,43.36 q 1.905,-0.489 3.614,-1.319 a 10.495,10.495 0 0 0 2.288,-1.492 9.528,9.528 0 0 0 0.641,-0.607 4.216,4.216 0 0 0 1.221,-3.028 z"
       id="6"
       inkscape:connector-curvature="0"
       style="vector-effect:non-scaling-stroke" />
    <path
       d="m 341.309,26.176 a 6.651,6.651 0 0 0 0.195,-1.664 8.926,8.926 0 0 0 -0.008,-0.37 q -0.066,-1.61 -0.725,-2.706 a 5.757,5.757 0 0 0 -1.904,-1.953 7.128,7.128 0 0 0 -0.932,-0.49 8.346,8.346 0 0 0 -1.753,-0.536 q -1.514,-0.293 -3.077,-0.293 a 20.487,20.487 0 0 0 -7.812,1.514 21.958,21.958 0 0 0 -6.592,4.15 q -2.881,2.637 -4.59,6.201 a 17.06,17.06 0 0 0 -0.623,1.475 18.035,18.035 0 0 0 -1.086,6.289 12.417,12.417 0 0 0 1.612,6.25 q 1.611,2.832 3.564,5.322 a 204.265,204.265 0 0 1 1.868,2.417 163.217,163.217 0 0 1 1.697,2.271 q 1.611,2.197 1.611,4.248 a 7.917,7.917 0 0 1 -0.016,0.505 q -0.045,0.706 -0.22,1.295 a 3.83,3.83 0 0 1 -0.838,1.52 7.282,7.282 0 0 1 -1.094,0.972 8.885,8.885 0 0 1 -1.641,0.933 20.9,20.9 0 0 1 -0.684,0.287 23.485,23.485 0 0 1 -2.88,0.933 16.171,16.171 0 0 0 -3.565,1.367 7.751,7.751 0 0 0 -2.734,2.393 4.961,4.961 0 0 0 -0.596,1.144 q -0.254,0.68 -0.373,1.514 a 11.279,11.279 0 0 0 -0.105,1.59 8.271,8.271 0 0 0 0.006,0.332 q 0.07,1.727 0.873,2.842 a 6.18,6.18 0 0 0 2.197,1.904 q 1.318,0.684 2.979,0.928 a 22.792,22.792 0 0 0 3.32,0.244 q 4.004,0 8.105,-1.855 a 26.836,26.836 0 0 0 7.373,-4.932 q 3.272,-3.076 5.371,-7.031 a 19.972,19.972 0 0 0 0.605,-1.24 16.61,16.61 0 0 0 1.495,-6.817 18.148,18.148 0 0 0 -0.015,-0.747 q -0.045,-1.097 -0.226,-2.051 a 9.688,9.688 0 0 0 -0.589,-1.987 q -0.83,-1.953 -2.051,-3.32 a 17.334,17.334 0 0 0 -2.685,-2.442 q -1.465,-1.074 -2.686,-2.099 a 10.488,10.488 0 0 1 -2.051,-2.295 4.907,4.907 0 0 1 -0.648,-1.49 6.233,6.233 0 0 1 -0.182,-1.538 q 0,-1.349 0.315,-2.423 a 5.262,5.262 0 0 1 1.59,-2.557 q 1.904,-1.66 4.248,-2.881 a 39.176,39.176 0 0 0 1.696,-0.936 32.705,32.705 0 0 0 2.552,-1.652 4.357,4.357 0 0 0 1.709,-2.535 z"
       id="7"
       inkscape:connector-curvature="0"
       style="vector-effect:non-scaling-stroke" />
    <path
       d="m 82.652095,142.96174 a 6.042,6.042 0 0 0 1.257,-3.677 9.06,9.06 0 0 0 -0.015,-0.544 q -0.124,-2.054 -1.205,-3.265 a 7.153,7.153 0 0 0 -0.914,-0.859 7.863,7.863 0 0 0 -2.162,-1.192 13.353,13.353 0 0 0 -0.468,-0.162 14.41,14.41 0 0 0 -3.487,-0.668 64.066,64.066 0 0 0 -1.541,-0.089 53.076,53.076 0 0 0 -2.415,-0.057 32.099,32.099 0 0 0 -0.736,0.009 q -1.843,0.042 -4.781,0.284 a 103.92,103.92 0 0 0 -3.735,0.378 136.73,136.73 0 0 0 -4.078,0.549 83.898,83.898 0 0 0 -8.593,1.758 55.703,55.703 0 0 0 -3.15,0.911 45.251,45.251 0 0 0 -4.761,1.824 24.626,24.626 0 0 0 -3.062,1.639 17.914,17.914 0 0 0 -2.797,2.169 9.115,9.115 0 0 0 -0.377,0.383 6.772,6.772 0 0 0 -1.918,4.744 4.704,4.704 0 0 0 0.005,0.224 3.64,3.64 0 0 0 1.265,2.657 8.518,8.518 0 0 0 0.941,0.722 9.766,9.766 0 0 0 2.086,1.036 17.18,17.18 0 0 0 3.662,0.879 48.15,48.15 0 0 0 0.172,0.021 q 1.201,0.15 2.1,0.199 a 14.87,14.87 0 0 0 0.804,0.024 41.866,41.866 0 0 0 2.881,-0.098 38.317,38.317 0 0 0 2.783,-0.293 957.363,957.363 0 0 1 -0.048,9.766 957.363,957.363 0 0 0 -0.049,9.765 q 0,5.958 0.097,11.866 0.098,5.908 0.293,11.767 a 23.762,23.762 0 0 0 0.001,0.12 q 0.009,1.81 0.292,4.031 a 17.405,17.405 0 0 0 1.123,4.345 11.056,11.056 0 0 0 0.12,0.286 9.531,9.531 0 0 0 2.224,3.181 5.072,5.072 0 0 0 2.326,1.225 7.377,7.377 0 0 0 1.727,0.191 6.768,6.768 0 0 0 0.655,-0.031 5.161,5.161 0 0 0 2.958,-1.238 8.862,8.862 0 0 0 2.295,-3.125 15.893,15.893 0 0 0 1.172,-3.955 28.105,28.105 0 0 0 0.245,-1.894 21.103,21.103 0 0 0 0.097,-1.964 156.421,156.421 0 0 0 -0.196,-7.812 158.391,158.391 0 0 1 -0.195,-7.91 255.22,255.22 0 0 1 0.44,-14.991 335.937,335.937 0 0 1 1.22,-14.99 25.534,25.534 0 0 0 1.391,-0.338 q 0.753,-0.203 1.622,-0.476 a 63.62,63.62 0 0 0 1.675,-0.553 q 2.832,-0.977 5.517,-2.49 a 22.159,22.159 0 0 0 1.449,-0.89 18.574,18.574 0 0 0 3.141,-2.626 8.235,8.235 0 0 0 0.647,-0.766 z"
       id="9"
       inkscape:connector-curvature="0"
       style="vector-effect:non-scaling-stroke" />
    <path
       d="m 120.32609,193.15974 a 52.555,52.555 0 0 0 0.009,-0.946 q 0,-4.004 -0.195,-8.252 -0.195,-4.248 -0.781,-8.496 a 69.351,69.351 0 0 0 -1.66,-8.301 42.178,42.178 0 0 0 -2.832,-7.666 15.275,15.275 0 0 0 -3.077,-4.443 19.501,19.501 0 0 0 -4.248,-3.223 q -2.343,-1.318 -4.98,-1.953 -2.636995,-0.634 -5.273995,-0.634 -1.504,0 -3.16,0.289 a 25.596,25.596 0 0 0 -3.041,0.736 25.893,25.893 0 0 0 -6.25,2.832 q -2.881,1.807 -4.785,4.443 a 9.776,9.776 0 0 0 -1.904,5.86 5.898,5.898 0 0 0 0.006,0.265 4.478,4.478 0 0 0 1.507,3.25 q 1.514,1.368 3.663,1.368 a 8.708,8.708 0 0 0 0.718,-0.03 7.152,7.152 0 0 0 2.797,-0.801 36.103,36.103 0 0 0 0.049,-0.026 39.388,39.388 0 0 0 3.076,-1.829 27.248,27.248 0 0 1 3.32,-1.855 7.332,7.332 0 0 1 0.19,-0.087 q 0.928,-0.406 2.038,-0.59 a 12.041,12.041 0 0 1 1.972,-0.154 8.141,8.141 0 0 1 1.687,0.166 5.41,5.41 0 0 1 2.999995,1.69 6.297,6.297 0 0 1 1.427,2.777 8.992,8.992 0 0 1 0.233,2.106 q 0,0.244 -0.012,0.464 a 6.064,6.064 0 0 1 -0.036,0.415 5.555,5.555 0 0 0 -0.001,0.006 q -0.024,0.195 -0.036,0.416 a 8.398,8.398 0 0 0 -0.012,0.457 35.832,35.832 0 0 0 -1.079,0.159 q -1.65,0.268 -3.487995,0.715 a 65.902,65.902 0 0 0 -3.881,1.079 41.479,41.479 0 0 0 -8.935,3.955 30.057,30.057 0 0 0 -0.903,0.557 26.218,26.218 0 0 0 -6.177,5.449 q -2.881,3.515 -2.881,8.203 a 12.151,12.151 0 0 0 0.179,2.067 14.136,14.136 0 0 0 0.993,3.255 q 1.172,2.686 3.125,4.834 a 16.786,16.786 0 0 0 4.492,3.516 11.167,11.167 0 0 0 5.371,1.367 q 4.102,0 8.057,-1.563 3.954995,-1.562 7.079995,-4.297 a 11.962,11.962 0 0 0 -0.005,0.333 q 0,0.695 0.083,1.342 a 7.964,7.964 0 0 0 1.777,4.185 6.234,6.234 0 0 0 3.279,2.067 8.923,8.923 0 0 0 2.288,0.277 6.559,6.559 0 0 0 0.65,-0.032 4.712,4.712 0 0 0 3.451,-1.922 11.734,11.734 0 0 0 1.132,-1.849 14.176,14.176 0 0 0 1.017,-2.789 28.221,28.221 0 0 0 0.83,-5.518 q 0.11,-2.124 0.137,-3.644 z m -15.616,-4.071 -0.293,-6.64 a 1.605,1.605 0 0 1 -0.39,-0.049 1.605,1.605 0 0 0 -0.391,-0.049 6.561,6.561 0 0 0 -0.948,0.075 q -0.976,0.143 -2.226,0.56 a 16.445,16.445 0 0 0 -3.661995,1.758 15.422,15.422 0 0 0 -1.898,1.419 12.719,12.719 0 0 0 -1.08,1.071 q -1.221,1.367 -1.221,2.832 a 2.949,2.949 0 0 0 0.075,0.691 1.67,1.67 0 0 0 0.901,1.164 4.582,4.582 0 0 0 1.408,0.431 5.894,5.894 0 0 0 0.839,0.058 9.425,9.425 0 0 0 2.365,-0.317 q 1.012,-0.263 2.081995,-0.742 a 15.894,15.894 0 0 0 0.142,-0.064 62.109,62.109 0 0 0 2.16,-1.043 q 1.152,-0.584 2.137,-1.155 z"
       id="10"
       inkscape:connector-curvature="0"
       style="vector-effect:non-scaling-stroke" />
    <path
       d="m 143.08909,171.02274 v 2.881 q 0,1.513 -0.097,2.881 -0.075,1.271 -0.093,3.2 a 137.106,137.106 0 0 0 -0.005,1.243 89.102,89.102 0 0 1 -0.049,2.893 111.309,111.309 0 0 1 -0.146,3.113 q -0.196,3.223 -0.635,6.543 a 32.434,32.434 0 0 1 -0.665,3.55 26.171,26.171 0 0 1 -0.751,2.505 15.155,15.155 0 0 1 -0.976,2.196 q -0.706,1.286 -1.612,2.247 a 5.662,5.662 0 0 1 -4.034,1.806 7.19,7.19 0 0 1 -0.019,0.001 4.114,4.114 0 0 1 -0.216,0.005 q -1.513,0 -2.622,-1.146 a 5.016,5.016 0 0 1 -0.287,-0.324 q -1.132,-1.394 -1.915,-3.526 a 18.535,18.535 0 0 1 -0.184,-0.527 26.248,26.248 0 0 1 -0.795,-2.987 33.752,33.752 0 0 1 -0.426,-2.579 104.981,104.981 0 0 1 -0.476,-4.505 94.305,94.305 0 0 1 -0.11,-1.453 89.585,89.585 0 0 1 -0.147,-2.771 69.663,69.663 0 0 1 -0.048,-2.551 v -3.613 -4.443 a 95.095,95.095 0 0 1 0.048,-2.991 117.956,117.956 0 0 1 0.147,-3.211 69.802,69.802 0 0 1 0.732,-6.738 36.738,36.738 0 0 1 0.81,-3.852 29.841,29.841 0 0 1 0.753,-2.398 15.916,15.916 0 0 1 1.019,-2.272 q 0.687,-1.246 1.55,-2.193 a 9.825,9.825 0 0 1 0.116,-0.125 5.495,5.495 0 0 1 4.003,-1.755 7.19,7.19 0 0 1 0.197,-0.003 4.074,4.074 0 0 1 3.306,1.562 6.197,6.197 0 0 1 0.697,1.075 20.109,20.109 0 0 1 1.315,3.22 26.754,26.754 0 0 1 0.736,2.933 q 0.684,3.515 0.782,6.982 0.095,3.404 0.097,5.066 a 58.295,58.295 0 0 1 0,0.061 z m -1.135,-31.444 a 4.34,4.34 0 0 0 0.354,-1.759 4.885,4.885 0 0 0 -0.076,-0.887 2.937,2.937 0 0 0 -1.487,-2.141 6.853,6.853 0 0 0 -3.418,-0.878 8.643,8.643 0 0 0 -0.925,0.05 10.205,10.205 0 0 0 -1.711,0.34 9.526,9.526 0 0 0 -0.513,0.162 8.167,8.167 0 0 0 -1.929,0.961 6.546,6.546 0 0 0 -1.806,1.856 4.38,4.38 0 0 0 -0.501,1.048 4.971,4.971 0 0 0 -0.232,1.54 4.95,4.95 0 0 0 0.056,0.76 3.184,3.184 0 0 0 1.409,2.267 5.626,5.626 0 0 0 1.507,0.709 6.597,6.597 0 0 0 1.911,0.267 q 1.172,0 2.539,-0.439 a 9.281,9.281 0 0 0 2.539,-1.27 8.67,8.67 0 0 0 0.496,-0.378 7.303,7.303 0 0 0 1.408,-1.526 4.193,4.193 0 0 0 0.379,-0.682 z"
       id="11"
       inkscape:connector-curvature="0"
       style="vector-effect:non-scaling-stroke" />
    <path
       d="m 183.03109,151.10074 h 0.097 a 3.997,3.997 0 0 1 1.92,0.511 q 0.569,0.307 1.127,0.8 a 8.202,8.202 0 0 1 0.371,0.349 17.301,17.301 0 0 1 1.434,1.64 q 0.91,1.174 1.789,2.657 a 40.151,40.151 0 0 1 1.696,3.198 51.891,51.891 0 0 1 1.234,2.808 122.501,122.501 0 0 1 2.539,6.836 114.281,114.281 0 0 1 1.593,5.09 101.747,101.747 0 0 1 0.457,1.648 q 0.605,2.249 1.07,4.06 a 236.455,236.455 0 0 1 0.395,1.555 q 0.091,-2.644 0.268,-5.926 a 434.422,434.422 0 0 1 0.025,-0.47 77.718,77.718 0 0 1 0.733,-7.178 61.132,61.132 0 0 1 1.464,-7.031 35.465,35.465 0 0 1 1.165,-3.567 27.816,27.816 0 0 1 1.13,-2.537 14.744,14.744 0 0 1 1.526,-2.417 11.537,11.537 0 0 1 1.844,-1.879 7.184,7.184 0 0 1 4.638,-1.612 6.185,6.185 0 0 1 1.633,0.203 4.197,4.197 0 0 1 2.42,1.701 7.304,7.304 0 0 1 1.176,2.934 9.846,9.846 0 0 1 0.142,1.705 q 0,2.93 -0.732,7.813 a 136.62,136.62 0 0 1 -0.867,5.09 176.265,176.265 0 0 1 -1.135,5.505 q -1.27,5.713 -2.979,11.524 a 100.607,100.607 0 0 1 -1.794,5.53 78.095,78.095 0 0 1 -1.965,4.968 q -1.611,3.68 -3.341,6.307 a 26.152,26.152 0 0 1 -0.956,1.359 q -2.246,2.978 -4.492,2.978 -2.877,0 -5.216,-2.814 a 12.913,12.913 0 0 1 -0.4,-0.506 30.614,30.614 0 0 1 -2.567,-4.089 40.58,40.58 0 0 1 -1.778,-3.87 73.803,73.803 0 0 1 -3.077,-9.521 207.678,207.678 0 0 1 -0.57,-2.338 q -0.797,-3.351 -1.236,-5.768 -0.772,1.93 -2.068,4.718 a 165.64,165.64 0 0 1 -0.032,0.067 96.131,96.131 0 0 1 -1.8,3.655 116.914,116.914 0 0 1 -1.227,2.302 q -1.709,3.125 -3.662,6.299 a 54.039,54.039 0 0 1 -2.499,3.719 44.919,44.919 0 0 1 -1.554,1.994 29.995,29.995 0 0 1 -1.837,2.035 q -1.031,1.037 -2.062,1.838 a 17.911,17.911 0 0 1 -0.3,0.229 9.543,9.543 0 0 1 -1.458,0.905 q -1.328,0.657 -2.595,0.657 a 5.25,5.25 0 0 1 -3.394,-1.255 8.174,8.174 0 0 1 -1.245,-1.284 q -1.728,-2.192 -2.983,-5.548 a 32.083,32.083 0 0 1 -0.386,-1.093 61.601,61.601 0 0 1 -1.399,-4.892 78.148,78.148 0 0 1 -0.896,-4.19 q -0.927,-4.98 -1.416,-9.961 a 199.881,199.881 0 0 1 -0.415,-4.809 159.304,159.304 0 0 1 -0.268,-4.468 q -0.196,-4.297 -0.196,-6.933 0,-2.442 0.245,-4.688 a 16.355,16.355 0 0 1 0.393,-2.233 12.631,12.631 0 0 1 0.583,-1.771 6.779,6.779 0 0 1 1.102,-1.819 6.029,6.029 0 0 1 1.047,-0.964 5.043,5.043 0 0 1 1.647,-0.769 q 0.702,-0.191 1.532,-0.24 a 9.939,9.939 0 0 1 0.58,-0.016 5.167,5.167 0 0 1 3.756,1.558 6.543,6.543 0 0 1 0.102,0.102 11.258,11.258 0 0 1 1.55,2.036 q 0.588,0.975 1.071,2.152 a 18.805,18.805 0 0 1 0.064,0.157 31.359,31.359 0 0 1 1.085,3.238 40.675,40.675 0 0 1 0.673,2.817 q 0.684,3.369 1.074,6.836 a 101.471,101.471 0 0 1 0.497,5.917 92.287,92.287 0 0 1 0.04,0.821 q 0.101,2.249 0.179,4.06 a 1295.371,1295.371 0 0 1 0.066,1.556 q 0.586,-2.051 1.66,-5.03 a 433.12,433.12 0 0 1 1.123,-3.076 525.085,525.085 0 0 1 1.22,-3.271 q 1.27,-3.37 2.784,-6.69 a 82.435,82.435 0 0 1 1.513,-3.149 62.699,62.699 0 0 1 1.514,-2.808 35.317,35.317 0 0 1 1.128,-1.84 q 0.614,-0.931 1.219,-1.698 a 17.961,17.961 0 0 1 0.632,-0.759 q 1.424,-1.615 2.757,-1.659 a 2.259,2.259 0 0 1 0.075,-0.001 z"
       id="12"
       inkscape:connector-curvature="0"
       style="vector-effect:non-scaling-stroke" />
    <path
       d="m 263.78309,193.15974 a 52.555,52.555 0 0 0 0.009,-0.946 q 0,-4.004 -0.195,-8.252 -0.195,-4.248 -0.781,-8.496 a 69.351,69.351 0 0 0 -1.66,-8.301 42.178,42.178 0 0 0 -2.832,-7.666 15.275,15.275 0 0 0 -3.077,-4.443 19.501,19.501 0 0 0 -4.248,-3.223 q -2.343,-1.318 -4.98,-1.953 -2.637,-0.634 -5.274,-0.634 -1.504,0 -3.16,0.289 a 25.596,25.596 0 0 0 -3.041,0.736 25.893,25.893 0 0 0 -6.25,2.832 q -2.881,1.807 -4.785,4.443 a 9.776,9.776 0 0 0 -1.904,5.86 5.898,5.898 0 0 0 0.006,0.265 4.478,4.478 0 0 0 1.507,3.25 q 1.514,1.368 3.663,1.368 a 8.708,8.708 0 0 0 0.718,-0.03 7.152,7.152 0 0 0 2.797,-0.801 36.103,36.103 0 0 0 0.049,-0.026 39.388,39.388 0 0 0 3.076,-1.829 27.248,27.248 0 0 1 3.321,-1.855 7.332,7.332 0 0 1 0.189,-0.087 q 0.928,-0.406 2.038,-0.59 a 12.041,12.041 0 0 1 1.972,-0.154 8.141,8.141 0 0 1 1.687,0.166 5.41,5.41 0 0 1 3,1.69 6.297,6.297 0 0 1 1.427,2.777 8.992,8.992 0 0 1 0.233,2.106 q 0,0.244 -0.012,0.464 a 6.064,6.064 0 0 1 -0.036,0.415 5.555,5.555 0 0 0 -0.001,0.006 q -0.024,0.195 -0.036,0.416 a 8.398,8.398 0 0 0 -0.012,0.457 35.832,35.832 0 0 0 -1.079,0.159 q -1.65,0.268 -3.488,0.715 a 65.902,65.902 0 0 0 -3.881,1.079 41.479,41.479 0 0 0 -8.935,3.955 30.057,30.057 0 0 0 -0.903,0.557 26.218,26.218 0 0 0 -6.177,5.449 q -2.881,3.515 -2.881,8.203 a 12.151,12.151 0 0 0 0.179,2.067 14.136,14.136 0 0 0 0.993,3.255 q 1.172,2.686 3.125,4.834 a 16.786,16.786 0 0 0 4.492,3.516 11.167,11.167 0 0 0 5.371,1.367 q 4.102,0 8.057,-1.563 3.955,-1.562 7.08,-4.297 a 11.962,11.962 0 0 0 -0.005,0.333 q 0,0.695 0.083,1.342 a 7.964,7.964 0 0 0 1.777,4.185 6.234,6.234 0 0 0 3.279,2.067 8.923,8.923 0 0 0 2.288,0.277 6.559,6.559 0 0 0 0.65,-0.032 4.712,4.712 0 0 0 3.451,-1.922 11.734,11.734 0 0 0 1.132,-1.849 14.176,14.176 0 0 0 1.017,-2.789 28.221,28.221 0 0 0 0.83,-5.518 q 0.11,-2.124 0.137,-3.644 z m -15.616,-4.071 -0.293,-6.64 a 1.605,1.605 0 0 1 -0.39,-0.049 1.605,1.605 0 0 0 -0.391,-0.049 6.561,6.561 0 0 0 -0.948,0.075 q -0.976,0.143 -2.226,0.56 a 16.445,16.445 0 0 0 -3.662,1.758 15.422,15.422 0 0 0 -1.898,1.419 12.719,12.719 0 0 0 -1.08,1.071 q -1.221,1.367 -1.221,2.832 a 2.949,2.949 0 0 0 0.075,0.691 1.67,1.67 0 0 0 0.901,1.164 4.582,4.582 0 0 0 1.408,0.431 5.894,5.894 0 0 0 0.839,0.058 9.425,9.425 0 0 0 2.365,-0.317 q 1.012,-0.263 2.082,-0.742 a 15.894,15.894 0 0 0 0.142,-0.064 62.109,62.109 0 0 0 2.16,-1.043 q 1.152,-0.584 2.137,-1.155 z"
       id="13"
       inkscape:connector-curvature="0"
       style="vector-effect:non-scaling-stroke" />
    <path
       d="m 284.98409,185.08474 v 5.664 a 73.06,73.06 0 0 1 -0.269,3.382 79.751,79.751 0 0 1 -0.024,0.232 32.167,32.167 0 0 1 -0.586,3.613 18.954,18.954 0 0 1 -0.879,3.369 11.353,11.353 0 0 1 -0.891,1.904 9.647,9.647 0 0 1 -0.623,0.928 8.029,8.029 0 0 1 -2.197,2.002 5.192,5.192 0 0 1 -1.877,0.689 6.905,6.905 0 0 1 -1.15,0.092 4.916,4.916 0 0 1 -1.604,-0.251 4.185,4.185 0 0 1 -1.619,-1.018 8.395,8.395 0 0 1 -1.335,-1.766 11.156,11.156 0 0 1 -0.716,-1.506 17.919,17.919 0 0 1 -0.773,-2.549 22.747,22.747 0 0 1 -0.35,-1.943 q -0.342,-2.49 -0.488,-4.883 -0.11,-1.794 -0.11,-3.369 a 42.07,42.07 0 0 1 0.012,-1.025 239.079,239.079 0 0 0 0.022,-0.949 q 0.027,-1.346 0.027,-2.225 v -4.59 a 180.816,180.816 0 0 0 -0.146,-7.324 178.383,178.383 0 0 1 -0.147,-7.227 q 0,-1.953 0.049,-4.98 a 27.43,27.43 0 0 1 0.732,-5.908 14.41,14.41 0 0 1 0.975,-2.827 11.68,11.68 0 0 1 1.271,-2.105 5.066,5.066 0 0 1 3.336,-1.952 7.67,7.67 0 0 1 1.254,-0.099 3.75,3.75 0 0 1 2.442,0.879 9.133,9.133 0 0 1 1.577,1.677 10.621,10.621 0 0 1 0.327,0.472 13.418,13.418 0 0 1 1.367,2.734 43.454,43.454 0 0 1 0.369,1.044 q 0.174,0.515 0.31,0.97 a 21.398,21.398 0 0 1 0.151,0.525 18.514,18.514 0 0 1 1.774,-2.117 21.162,21.162 0 0 1 0.521,-0.52 15.877,15.877 0 0 1 2.979,-2.246 15.291,15.291 0 0 1 2.706,-1.243 17.987,17.987 0 0 1 1.005,-0.319 14.577,14.577 0 0 1 2.197,-0.44 q 1.172,-0.146 2.49,-0.146 a 16.744,16.744 0 0 1 3.032,0.257 q 1.738,0.321 3.111,1.04 a 8.592,8.592 0 0 1 1.621,1.095 14.211,14.211 0 0 1 4.101,5.957 27.142,27.142 0 0 1 1.495,6.398 31.06,31.06 0 0 1 0.117,1.268 123.133,123.133 0 0 1 0.219,3.892 89.408,89.408 0 0 1 0.074,3.527 26.467,26.467 0 0 1 -0.019,0.934 q -0.055,1.547 -0.274,4.001 a 90.444,90.444 0 0 1 -0.379,3.442 121.761,121.761 0 0 1 -0.549,3.785 86.945,86.945 0 0 1 -1.447,7.07 96.369,96.369 0 0 1 -0.262,1.035 57.624,57.624 0 0 1 -1.413,4.67 46.534,46.534 0 0 1 -1.126,2.898 23.539,23.539 0 0 1 -1.385,2.748 q -0.956,1.61 -2.082,2.819 -2.002,2.148 -4.541,2.148 a 2.898,2.898 0 0 1 -2.277,-1.033 4.105,4.105 0 0 1 -0.36,-0.48 10.941,10.941 0 0 1 -1.151,-2.403 13.125,13.125 0 0 1 -0.314,-1.064 q -0.488,-1.953 -0.634,-3.955 a 85.774,85.774 0 0 1 -0.064,-0.943 q -0.083,-1.328 -0.083,-2.133 a 50.522,50.522 0 0 1 0.342,-5.86 q 0.342,-2.93 0.781,-5.859 a 180.502,180.502 0 0 0 0.782,-5.86 50.522,50.522 0 0 0 0.341,-5.859 31.798,31.798 0 0 0 -0.024,-1.221 40.219,40.219 0 0 0 -0.073,-1.318 13.33,13.33 0 0 0 -0.311,-2.086 11.927,11.927 0 0 0 -0.129,-0.502 5.037,5.037 0 0 0 -0.451,-1.111 4.064,4.064 0 0 0 -0.672,-0.891 2.626,2.626 0 0 0 -1.519,-0.744 3.657,3.657 0 0 0 -0.532,-0.037 q -0.743,0 -1.626,1.013 a 7.645,7.645 0 0 0 -0.327,0.403 20.211,20.211 0 0 0 -1.285,1.922 24.729,24.729 0 0 0 -0.717,1.301 29,29 0 0 0 -1.482,3.387 26.66,26.66 0 0 0 -0.08,0.226 q -0.489,1.39 -0.601,2.23 a 3.457,3.457 0 0 0 -0.034,0.455 195.619,195.619 0 0 0 0.049,4.346 200.012,200.012 0 0 1 0.049,4.443 z"
       id="14"
       inkscape:connector-curvature="0"
       style="vector-effect:non-scaling-stroke" />
  </g>
</svg>
